<?xml version="1.0" standalone="no"?>
<!DOCTYPE svg PUBLIC "-//W3C//DTD SVG 20010904//EN"
 "http://www.w3.org/TR/2001/REC-SVG-20010904/DTD/svg10.dtd">
<svg version="1.0" xmlns="http://www.w3.org/2000/svg"
 width="600.000000pt" height="500.000000pt" viewBox="0 0 600.000000 500.000000"
 preserveAspectRatio="xMidYMid meet">

<g transform="translate(0.000000,500.000000) scale(0.100000,-0.100000)"
fill="#000000" stroke="none">
<path d="M3575 3853 c-92 -19 -224 -72 -235 -94 -16 -29 29 -175 135 -444 16
-38 31 -73 34 -77 3 -3 45 -1 92 7 80 11 151 8 208 -10 13 -4 30 5 53 27 61
58 221 353 238 438 4 19 10 42 14 51 8 18 -12 29 -119 66 -149 51 -293 64
-420 36z"/>
<path d="M3580 3133 l-45 -4 -17 -127 c-22 -164 -83 -466 -114 -563 -59 -188
-163 -412 -259 -559 -46 -70 -204 -240 -269 -289 -28 -20 -28 -23 -18 -59 43
-140 233 -336 328 -336 141 0 340 355 455 809 44 175 129 768 145 1017 7 105
7 105 -17 111 -24 7 -105 7 -189 0z"/>
<path d="M2161 2458 c-93 -107 -161 -229 -238 -426 l-44 -113 56 -107 c83
-157 220 -359 289 -425 177 -169 403 -257 631 -244 156 9 155 8 91 81 -67 78
-104 133 -150 223 -70 141 -86 223 -132 689 -5 50 -6 52 -48 68 -67 26 -211
125 -317 219 l-96 85 -42 -50z"/>
</g>
</svg>
